<svg viewBox="0 0 23 14" fill="none" xmlns="http://www.w3.org/2000/svg">
    <path d="M8.325 11H6L2.85 7.655V11H0.975V0.424999H2.85V6.875L5.805 3.68H8.085L4.785 7.19L8.325 11ZM13.232 3.485C13.862 3.485 14.422 3.645 14.912 3.965C15.412 4.285 15.797 4.74 16.067 5.33C16.347 5.91 16.487 6.58 16.487 7.34C16.487 8.1 16.347 8.765 16.067 9.335C15.797 9.905 15.417 10.345 14.927 10.655C14.437 10.965 13.872 11.12 13.232 11.12C12.712 11.12 12.247 11.01 11.837 10.79C11.427 10.57 11.112 10.265 10.892 9.875V13.7H9.01699V3.665H10.862V4.775C11.082 4.365 11.397 4.05 11.807 3.83C12.227 3.6 12.702 3.485 13.232 3.485ZM12.737 9.665C13.327 9.665 13.787 9.465 14.117 9.065C14.447 8.655 14.612 8.08 14.612 7.34C14.612 6.58 14.447 5.99 14.117 5.57C13.787 5.15 13.327 4.94 12.737 4.94C12.137 4.94 11.672 5.145 11.342 5.555C11.022 5.965 10.862 6.55 10.862 7.31C10.862 8.06 11.022 8.64 11.342 9.05C11.672 9.46 12.137 9.665 12.737 9.665ZM22.8558 5.045L21.7608 5.15C20.5208 5.28 19.9008 5.91 19.9008 7.04V11H18.0258V3.665H19.8108V4.955C20.1908 4.075 20.9758 3.595 22.1658 3.515L22.7358 3.47L22.8558 5.045Z" fill="#555555"/>
</svg>
