<?xml version="1.0" encoding="UTF-8" standalone="no"?>
<svg
   xmlns:dc="http://purl.org/dc/elements/1.1/"
   xmlns:cc="http://creativecommons.org/ns#"
   xmlns:rdf="http://www.w3.org/1999/02/22-rdf-syntax-ns#"
   xmlns:svg="http://www.w3.org/2000/svg"
   xmlns="http://www.w3.org/2000/svg"
   xmlns:sodipodi="http://sodipodi.sourceforge.net/DTD/sodipodi-0.dtd"
   xmlns:inkscape="http://www.inkscape.org/namespaces/inkscape"
   viewBox="0 -10 51.785331 85.5428"
   height="75.542801"
   width="51.785332"
   xml:space="preserve"
   id="svg2"
   version="1.1"
   inkscape:version="0.91 r13725"
   sodipodi:docname="dtulogo.svg"><sodipodi:namedview
     pagecolor="#ffffff"
     bordercolor="#666666"
     borderopacity="1"
     objecttolerance="10"
     gridtolerance="10"
     guidetolerance="10"
     inkscape:pageopacity="0"
     inkscape:pageshadow="2"
     inkscape:window-width="1313"
     inkscape:window-height="924"
     id="namedview14"
     showgrid="true"
     fit-margin-top="0"
     fit-margin-left="0"
     fit-margin-right="0"
     fit-margin-bottom="0"
     inkscape:zoom="3.3638598"
     inkscape:cx="39.711236"
     inkscape:cy="-34.847759"
     inkscape:window-x="0"
     inkscape:window-y="0"
     inkscape:window-maximized="0"
     inkscape:current-layer="svg2"><inkscape:grid
       type="xygrid"
       id="grid3342"
       originx="-0.40638376"
       originy="-1166.8806" /></sodipodi:namedview><metadata
     id="metadata8"><rdf:RDF><cc:Work
         rdf:about=""><dc:format>image/svg+xml</dc:format><dc:type
           rdf:resource="http://purl.org/dc/dcmitype/StillImage" /><dc:title></dc:title></cc:Work></rdf:RDF></metadata><defs
     id="defs6"><clipPath
       id="clipPath18"
       clipPathUnits="userSpaceOnUse"><path
         id="path16"
         d="m 0,841.89 595.276,0 L 595.276,0 0,0 Z"
         inkscape:connector-curvature="0" /></clipPath></defs><g
     transform="matrix(1.3333333,0,0,-1.3333333,-457.91652,597.92572)"
     id="g10"><g
       id="g12"><g
         clip-path="url(#clipPath18)"
         id="g14"><g
           transform="translate(345.9375,448.4443)"
           id="g20"><path
             id="path22"
             style="fill:#848282;fill-opacity:1;fill-rule:nonzero;stroke:none"
             d="m 0,0 c -0.154,0 -0.249,-0.047 -0.318,-0.114 -0.069,-0.07 -0.114,-0.162 -0.114,-0.318 l 0,-19.712 c 0,-0.154 0.045,-0.248 0.114,-0.316 0.069,-0.068 0.164,-0.114 0.318,-0.114 l 5.156,0 c 2.003,0 3.225,0.455 3.965,1.414 1.093,1.308 1.128,3.422 1.128,6.661 l 0,4.423 c 0,3.24 -0.035,5.352 -1.128,6.661 C 8.381,-0.455 7.159,0 5.156,0 Z m 2.84,-2.405 1.818,0 c 0.803,0 1.282,-0.131 1.654,-0.576 0.572,-0.687 0.621,-2.074 0.621,-4.869 l 0,-4.875 c 0,-2.796 -0.049,-4.181 -0.621,-4.869 -0.372,-0.445 -0.851,-0.575 -1.654,-0.575 l -1.818,0 z m 31.317,1.973 c 0,0.156 -0.047,0.248 -0.115,0.318 C 33.975,-0.047 33.879,0 33.726,0 l -2.411,0 c -0.154,0 -0.248,-0.047 -0.316,-0.114 -0.069,-0.07 -0.115,-0.162 -0.115,-0.318 l 0,-14.552 c 0,-1.519 -0.115,-2.421 -0.608,-2.963 -0.335,-0.367 -0.809,-0.547 -1.471,-0.547 -0.604,0 -1.059,0.167 -1.407,0.55 -0.466,0.513 -0.608,1.386 -0.608,2.96 l 0,14.552 c 0,0.156 -0.048,0.248 -0.117,0.318 C 26.606,-0.047 26.512,0 26.356,0 l -2.408,0 c -0.155,0 -0.25,-0.047 -0.316,-0.114 -0.07,-0.07 -0.115,-0.162 -0.115,-0.318 l 0,-14.556 c 0,-2.119 0.288,-3.448 1.129,-4.374 0.875,-0.962 2.198,-1.473 4.201,-1.473 2.026,0 3.331,0.543 4.133,1.476 0.944,1.095 1.177,2.403 1.177,4.371 z M 18.599,-20.144 c 0,-0.154 -0.045,-0.248 -0.114,-0.316 -0.069,-0.068 -0.163,-0.114 -0.316,-0.114 l -2.638,0 c -0.153,0 -0.249,0.046 -0.316,0.114 -0.07,0.068 -0.115,0.162 -0.115,0.316 l 0,17.543 -3.095,0 c -0.155,0 -0.248,0.046 -0.318,0.115 -0.069,0.068 -0.116,0.163 -0.116,0.317 l 0,1.737 c 0,0.156 0.047,0.248 0.116,0.318 C 11.757,-0.047 11.85,0 12.005,0 l 9.689,0 c 0.156,0 0.25,-0.047 0.32,-0.114 0.065,-0.07 0.113,-0.162 0.113,-0.318 l 0,-1.737 c 0,-0.154 -0.048,-0.249 -0.113,-0.317 -0.07,-0.069 -0.164,-0.115 -0.32,-0.115 l -3.095,0 z"
             inkscape:connector-curvature="0" /></g><g
           transform="translate(382.2764,417.5732)"
           id="g24"><path
             id="path26"
             style="fill:#bf2033;fill-opacity:1;fill-rule:nonzero;stroke:none"
             d="m 0,0 -8.266,-4.337 c -10.701,4.162 -11.604,4.162 -22.309,0 L -38.839,0 l 8.264,4.341 c 10.705,-4.164 11.608,-4.164 22.309,0 z m 0,-10.724 -8.266,-4.339 c -10.701,4.165 -11.604,4.165 -22.309,0 l -8.264,4.339 8.264,4.339 c 10.705,-4.163 11.608,-4.163 22.309,0 z m 0,-10.723 -8.266,-4.339 c -10.701,4.162 -11.604,4.162 -22.309,0 l -8.264,4.339 8.264,4.337 c 10.705,-4.163 11.608,-4.163 22.309,0 L 0,-21.447"
             inkscape:connector-curvature="0" /></g></g></g></g></svg>